# xmcd
#
# Track frame offsets: 
#        150
#        14575
#        31065
#        45922
#        57892
#        77460
#        93100
#        112525
#        129085
#        148402
#        164015
#        180070
#        196980
#
# Disc length: 2885 seconds
#
# Revision: 4
# Processed by: cddbd v1.5.2PL0 Copyright (c) Steve Scherf et al.
# Submitted via: ExactAudioCopy v0.99pb5
#
DISCID=900b430d
DTITLE=KENNY ROGERS - 25 GREATEST HITS
DYEAR=1994
DGENRE=Country
TTITLE0=Daytime Friends
TTITLE1=You Decorated My Life
TTITLE2='Till I Can Make It On My Own
TTITLE3=Reuben James
TTITLE4=Coward Of The County
TTITLE5=I Don't Need You
TTITLE6=Something's Burning
TTITLE7=Love Will Turn You Around
TTITLE8=Abraham, Martin And John/Precious Memories
TTITLE9=Love Is What We Make It
TTITLE10=Green Green Grass Of Home
TTITLE11=Desperado
TTITLE12=Sweet Music Man
EXTD=YEAR: 1987 ID3G: 2
EXTT0=
EXTT1=
EXTT2=
EXTT3=
EXTT4=
EXTT5=
EXTT6=
EXTT7=
EXTT8=
EXTT9=
EXTT10=
EXTT11=
EXTT12=
PLAYORDER=
